<svg width="7" height="10" viewBox="0 0 7 10" fill="none" xmlns="http://www.w3.org/2000/svg">
<path d="M3.5 0C1.565 0 0 1.565 0 3.5C0 6.125 3.5 10 3.5 10C3.5 10 7 6.125 7 3.5C7 1.565 5.435 0 3.5 0ZM1 3.5C1 2.12 2.12 1 3.5 1C4.88 1 6 2.12 6 3.5C6 4.94 4.56 7.095 3.5 8.44C2.46 7.105 1 4.925 1 3.5Z" fill="#1A1A1A"/>
<path d="M3.5 4.75C4.19036 4.75 4.75 4.19036 4.75 3.5C4.75 2.80964 4.19036 2.25 3.5 2.25C2.80964 2.25 2.25 2.80964 2.25 3.5C2.25 4.19036 2.80964 4.75 3.5 4.75Z" fill="#1A1A1A"/>
</svg>
