<svg width="14" height="11" viewBox="0 0 14 11" fill="none" xmlns="http://www.w3.org/2000/svg">
<path d="M12.833 9.33301C12.833 9.7902 12.4572 10.167 12 10.167H1.33301C0.876181 10.1668 0.500357 9.79077 0.5 9.33398L0.505859 1.40625L1.06836 1.75781L6.40137 5.09082L6.66699 5.25586L6.93164 5.09082L12.2646 1.75781L12.833 1.40137V9.33301ZM11.7354 2.24219L6.66602 5.41016L1.59863 2.24219L0.833008 1.76465V9.83301H12.5V1.76465L11.7354 2.24219ZM1.33301 0.5H12C12.2698 0.5 12.5104 0.631698 12.6631 0.833008H0.673828C0.825107 0.631087 1.06454 0.500105 1.33301 0.5Z" fill="#6B7280" stroke="#6B7280"/>
</svg>
