<svg width="12" height="14" viewBox="0 0 12 14" fill="none" xmlns="http://www.w3.org/2000/svg">
<path d="M6.83008 0.587891C8.16797 0.374036 9.47033 0.555347 10.748 1.05371H10.749C10.8149 1.07921 10.8742 1.10768 10.9287 1.13965C10.9768 1.16784 11.0004 1.18944 11.0117 1.20117C11.0101 1.21587 11.0058 1.24557 10.9854 1.29492V1.2959C10.834 1.66302 10.6858 2.01825 10.5254 2.36621V2.36719C10.511 2.39859 10.4968 2.41769 10.4883 2.43066C10.4733 2.42942 10.4511 2.42872 10.4209 2.42188C10.2032 2.37246 9.98723 2.31356 9.75684 2.25293C9.53082 2.19345 9.29293 2.13227 9.0498 2.08301H9.05078C8.02592 1.87148 6.96537 1.85425 5.91211 2.27051H5.91113C5.06821 2.6054 4.52717 3.21112 4.15723 3.9209L4.00879 4.23145C3.97959 4.29618 3.97011 4.35082 3.9668 4.37402C3.96297 4.40093 3.96135 4.42307 3.96094 4.43555V4.95996H7.17578V5.71094H3.56348L3.55762 6.20508V7.46094H7.17578V8.21094H3.63281L3.86523 8.87598C4.22594 9.90655 4.83218 10.7961 5.95996 11.2344L6.19238 11.3164C7.15352 11.62 8.11645 11.5952 9.0459 11.4014L9.04688 11.4023C9.28703 11.3531 9.52231 11.2923 9.74609 11.2334C9.97358 11.1735 10.1868 11.115 10.4023 11.0654C10.443 11.0562 10.4713 11.055 10.4893 11.0537C10.4986 11.0679 10.5138 11.09 10.5303 11.126L10.5312 11.127C10.6944 11.4803 10.8454 11.8416 10.9961 12.21V12.2119C11.0112 12.2488 11.0147 12.2731 11.0166 12.2871C11.0056 12.2959 10.986 12.3116 10.9502 12.3281L10.9492 12.3291C10.6175 12.482 10.2683 12.6073 9.91504 12.7041H9.91406C8.54438 13.0814 7.19148 13.0914 5.85254 12.6572C4.36305 12.1742 3.34176 11.2018 2.69043 9.80469L2.56445 9.51953C2.4446 9.22567 2.37212 8.93104 2.25879 8.56348L2.15039 8.21094H0.5V7.46094H2.04883V5.71094H0.5V4.95996H2.21387L2.32812 4.61816L2.37598 4.47559L2.37891 4.4668C2.7393 3.31526 3.35249 2.35682 4.28809 1.63281L4.28906 1.63184C5.02302 1.06197 5.88299 0.741188 6.83105 0.588867L6.83008 0.587891Z" fill="#838383" stroke="#838383"/>
</svg>
