<svg width="10" height="12" viewBox="0 0 10 12" fill="none" xmlns="http://www.w3.org/2000/svg">
<path d="M9.03 6.33153C8.11417 3.95153 4.85333 3.82319 5.64083 0.364027C5.69917 0.10736 5.425 -0.0909728 5.20333 0.0431939C3.08583 1.29153 1.56333 3.79403 2.84083 7.07236C2.94583 7.34069 2.63083 7.59153 2.40333 7.41653C1.3475 6.61736 1.23667 5.46819 1.33 4.64569C1.365 4.34236 0.968333 4.19653 0.799167 4.44736C0.4025 5.05403 0 6.03403 0 7.50986C0.221667 10.7765 2.98083 11.7799 3.9725 11.9082C5.39 12.089 6.92417 11.8265 8.02667 10.8174C9.24 9.69153 9.68333 7.89486 9.03 6.33153ZM3.61667 9.26569C4.45667 9.06153 4.88833 8.45486 5.005 7.91819C5.1975 7.08403 4.445 6.26736 4.9525 4.94903C5.145 6.03986 6.86 6.72236 6.86 7.91236C6.90667 9.38819 5.30833 10.654 3.61667 9.26569Z" fill="#E02424"/>
</svg>
