<svg width="15" height="12" viewBox="0 0 15 12" fill="none" xmlns="http://www.w3.org/2000/svg">
<path d="M13.9648 5.69238L13.7656 5.95312L12.9688 5.34863L12.167 4.73926V11.5H2.5V4.73438L1.69629 5.34961L0.900391 5.95801L0.699219 5.69434L7.33301 0.628906L13.9648 5.69238ZM4.66699 7.16699C4.75726 7.16717 4.83283 7.24274 4.83301 7.33301C4.83301 7.42342 4.75737 7.49982 4.66699 7.5C4.57647 7.5 4.5 7.42353 4.5 7.33301C4.50018 7.24263 4.57658 7.16699 4.66699 7.16699ZM7.33301 7.16699C7.42342 7.16699 7.49982 7.24263 7.5 7.33301C7.5 7.42353 7.42353 7.5 7.33301 7.5C7.24263 7.49982 7.16699 7.42342 7.16699 7.33301C7.16717 7.24274 7.24274 7.16717 7.33301 7.16699ZM10 7.16699C10.0904 7.16699 10.1668 7.24263 10.167 7.33301C10.167 7.42353 10.0905 7.5 10 7.5C9.90948 7.5 9.83301 7.42353 9.83301 7.33301C9.83319 7.24263 9.90958 7.16699 10 7.16699ZM11.833 4.48633L11.6367 4.33594L7.63672 1.28223L7.33301 1.05078L7.03027 1.28223L3.03027 4.33594L2.83301 4.48633V11.167H11.833V4.48633Z" fill="#838383" stroke="#838383"/>
</svg>
