<svg width="10" height="14" viewBox="0 0 10 14" fill="none" xmlns="http://www.w3.org/2000/svg">
<path d="M4.66699 0.5C6.9707 0.500176 8.83301 2.36324 8.83301 4.66699C8.83293 5.44075 8.57207 6.34519 8.14746 7.29297C7.72574 8.23428 7.1598 9.18266 6.58594 10.0332C6.01306 10.8823 5.43885 11.6251 5.00781 12.1562C4.881 12.3125 4.76402 12.4481 4.66602 12.5645C4.56818 12.4483 4.45269 12.3121 4.32617 12.1562C3.89517 11.6252 3.3209 10.8822 2.74805 10.0332C2.17416 9.18262 1.60728 8.23432 1.18555 7.29297C0.760941 6.34519 0.500073 5.44075 0.5 4.66699C0.5 2.36313 2.36313 0.5 4.66699 0.5ZM4.66699 0.833008C2.55085 0.833008 0.833008 2.55085 0.833008 4.66699C0.833117 5.75382 1.37771 7.05193 2.04297 8.24805C2.71979 9.46497 3.56994 10.6588 4.27246 11.5605L4.66406 12.0645L5.05957 11.5625C5.77619 10.6532 6.62689 9.46351 7.30078 8.25C7.96385 7.05591 8.49989 5.76232 8.5 4.66699C8.5 2.55096 6.78298 0.833184 4.66699 0.833008ZM4.66699 3.5C5.31117 3.50018 5.83301 4.02277 5.83301 4.66699C5.83283 5.31107 5.31107 5.83283 4.66699 5.83301C4.02277 5.83301 3.50018 5.31117 3.5 4.66699C3.5 4.02266 4.02266 3.5 4.66699 3.5Z" fill="#838383" stroke="#838383"/>
</svg>
