<svg width="12" height="12" viewBox="0 0 12 12" fill="none" xmlns="http://www.w3.org/2000/svg">
<path d="M8.12598 7.83301L10.9531 10.666L10.666 10.9531L7.83301 8.125V7.83301H8.12598ZM4.33301 0.5C6.45009 0.5 8.16682 2.21597 8.16699 4.33301C8.16699 5.28193 7.8195 6.15429 7.24121 6.82715L7.04883 7.04883L6.82715 7.24121C6.15429 7.8195 5.28193 8.16699 4.33301 8.16699C2.21597 8.16682 0.5 6.45009 0.5 4.33301C0.500176 2.21608 2.21608 0.500176 4.33301 0.5ZM4.33301 0.833008C2.39712 0.833183 0.833183 2.39712 0.833008 4.33301C0.833008 6.26904 2.39702 7.83283 4.33301 7.83301C6.26915 7.83301 7.83301 6.26915 7.83301 4.33301C7.83283 2.39702 6.26904 0.833008 4.33301 0.833008Z" fill="#838383" stroke="#838383"/>
</svg>
