<svg width="11" height="11" viewBox="0 0 11 11" fill="none" xmlns="http://www.w3.org/2000/svg">
<path d="M5.33301 7.16699C6.16045 7.16699 7.43088 7.37801 8.48145 7.79883C9.00627 8.00907 9.44473 8.25984 9.74414 8.53613C10.04 8.80922 10.1669 9.07342 10.167 9.33301V10.167H0.5V9.33301C0.500105 9.07349 0.626143 8.80915 0.921875 8.53613C1.22129 8.25979 1.66065 8.0091 2.18555 7.79883C3.23592 7.37814 4.50563 7.16705 5.33301 7.16699ZM5.33301 7.5C4.36589 7.50005 3.34642 7.72852 2.54883 8.0166C2.14931 8.16092 1.78932 8.32541 1.51074 8.49512C1.37195 8.57968 1.24188 8.67263 1.13477 8.77246C1.03613 8.86439 0.914977 9.00147 0.857422 9.18164L0.648438 9.83301H9.99316L9.81445 9.19824C9.76146 9.0101 9.63715 8.86818 9.54004 8.77637C9.4337 8.67592 9.30396 8.5834 9.16602 8.49902C8.88845 8.32924 8.52827 8.16329 8.12793 8.01855C7.32871 7.72966 6.30362 7.5 5.33301 7.5ZM5.33301 0.5C6.5302 0.5 7.5 1.4698 7.5 2.66699C7.49982 3.86403 6.53009 4.83301 5.33301 4.83301C4.13608 4.83283 3.16717 3.86392 3.16699 2.66699C3.16699 1.46991 4.13597 0.500176 5.33301 0.5ZM5.33301 0.833008C4.32368 0.833185 3.5 1.65762 3.5 2.66699C3.50018 3.67621 4.32379 4.49982 5.33301 4.5C6.34237 4.5 7.16682 3.67632 7.16699 2.66699C7.16699 1.65752 6.34248 0.833008 5.33301 0.833008Z" fill="#6B7280" stroke="#6B7280"/>
</svg>
