<svg width="12" height="12" viewBox="0 0 12 12" fill="none" xmlns="http://www.w3.org/2000/svg">
<path d="M4.5 8.5C4.5 8.775 4.275 9 4 9C3.725 9 3.5 8.775 3.5 8.5C3.5 8.225 3.725 8 4 8C4.275 8 4.5 8.225 4.5 8.5ZM6 8C5.725 8 5.5 8.225 5.5 8.5C5.5 8.775 5.725 9 6 9C6.275 9 6.5 8.775 6.5 8.5C6.5 8.225 6.275 8 6 8ZM8 8C7.725 8 7.5 8.225 7.5 8.5C7.5 8.775 7.725 9 8 9C8.275 9 8.5 8.775 8.5 8.5C8.5 8.225 8.275 8 8 8ZM9.5 6V7H2.5V6C2.5 4.235 3.805 2.785 5.5 2.54V1.5H6.5V2.54C8.195 2.785 9.5 4.235 9.5 6ZM8.5 6C8.5 4.62 7.38 3.5 6 3.5C4.62 3.5 3.5 4.62 3.5 6H8.5ZM4 9.5C3.725 9.5 3.5 9.725 3.5 10C3.5 10.275 3.725 10.5 4 10.5C4.275 10.5 4.5 10.275 4.5 10C4.5 9.725 4.275 9.5 4 9.5ZM6 9.5C5.725 9.5 5.5 9.725 5.5 10C5.5 10.275 5.725 10.5 6 10.5C6.275 10.5 6.5 10.275 6.5 10C6.5 9.725 6.275 9.5 6 9.5ZM8 9.5C7.725 9.5 7.5 9.725 7.5 10C7.5 10.275 7.725 10.5 8 10.5C8.275 10.5 8.5 10.275 8.5 10C8.5 9.725 8.275 9.5 8 9.5Z" fill="#1A1A1A"/>
</svg>
